<svg width="18" height="14" viewBox="0 0 18 14" fill="none" xmlns="http://www.w3.org/2000/svg">
<g clip-path="url(#clip0_37_12)">
<path d="M13.455 10.4649C12.1729 11.225 10.6118 11.6461 9 11.6666C3.75 11.6666 0.75 6.99993 0.75 6.99993C1.68292 5.64771 2.97685 4.46629 4.545 3.53493M7.425 2.47327C7.94125 2.37928 8.4698 2.3323 9 2.33327C14.25 2.33327 17.25 6.99993 17.25 6.99993C16.7947 7.66237 16.2518 8.28603 15.63 8.86077M10.59 8.2366C10.384 8.40854 10.1356 8.54644 9.85961 8.64209C9.58362 8.73774 9.28568 8.78917 8.98357 8.79331C8.68146 8.79746 8.38137 8.75424 8.10121 8.66622C7.82104 8.5782 7.56654 8.4472 7.35288 8.28102C7.13923 8.11485 6.97079 7.9169 6.85763 7.69899C6.74447 7.48109 6.68889 7.24769 6.69423 7.01271C6.69956 6.77774 6.76568 6.54601 6.88866 6.33134C7.01163 6.11668 7.18894 5.92348 7.41 5.76327" stroke="#323232" stroke-width="2" stroke-linecap="round" stroke-linejoin="round"/>
<path d="M0.75 0.583252L17.25 13.4166" stroke="#323232" stroke-width="2" stroke-linecap="round" stroke-linejoin="round"/>
</g>
<defs>
<clipPath id="clip0_37_12">
<rect width="18" height="14" fill="white"/>
</clipPath>
</defs>
</svg>
