<svg width="31" height="30" viewBox="0 0 31 30" fill="none" xmlns="http://www.w3.org/2000/svg">
<path d="M3.875 7.5H6.45833H27.125" stroke="#989898" stroke-width="2" stroke-linecap="round" stroke-linejoin="round"/>
<path d="M24.5417 7.5V25C24.5417 25.663 24.2695 26.2989 23.7851 26.7678C23.3006 27.2366 22.6435 27.5 21.9584 27.5H9.04171C8.35656 27.5 7.69948 27.2366 7.21501 26.7678C6.73055 26.2989 6.45837 25.663 6.45837 25V7.5M10.3334 7.5V5C10.3334 4.33696 10.6055 3.70107 11.09 3.23223C11.5745 2.76339 12.2316 2.5 12.9167 2.5H18.0834C18.7685 2.5 19.4256 2.76339 19.9101 3.23223C20.3945 3.70107 20.6667 4.33696 20.6667 5V7.5" stroke="#989898" stroke-width="2" stroke-linecap="round" stroke-linejoin="round"/>
<path d="M12.9166 13.75V21.25" stroke="#989898" stroke-width="2" stroke-linecap="round" stroke-linejoin="round"/>
<path d="M18.0834 13.75V21.25" stroke="#989898" stroke-width="2" stroke-linecap="round" stroke-linejoin="round"/>
</svg>
